<?xml version="1.0" encoding="UTF-8"?>
<svg id="a" data-name="Layer 1" xmlns="http://www.w3.org/2000/svg" viewBox="0 0 440.3 445.1">
  <defs>
    <style>
      .b {
        fill: #5d7432;
        stroke: #5d7432;
        stroke-linejoin: round;
        stroke-width: 14.49px;
      }

      .c {
        fill: #fff;
        stroke: #fff;
        stroke-miterlimit: 10;
        stroke-width: 18px;
      }
    </style>
  </defs>
  <path class="b" d="M304.61,7.24h-168.92c-15.71,0-30.23,8.38-38.09,21.99L13.14,175.53c-7.86,13.61-7.86,30.38,0,43.98l84.46,146.29c7.86,13.61,22.38,21.99,38.09,21.99h168.92c15.71,0,30.23-8.38,38.09-21.99l84.46-146.29c7.86-13.61,7.86-30.38,0-43.98L342.7,29.24c-7.86-13.61-22.38-21.99-38.09-21.99Z"/>
  <path class="c" d="M156,78.47c.2-2.49.83-4.77,1.87-6.85,1.04-2.07,2.34-3.68,3.89-4.83,1.56-1.14,3.16-1.66,4.83-1.56,1.66.11,3.32,1.09,4.98,2.96.83,0,1.5.78,2.02,2.34.52,1.56.88,4.36,1.09,8.41.2,4.05.36,9.61.47,16.67.1,7.06.16,16.1.16,27.1s.05,24.25.16,39.72c.1,15.47.26,33.6.47,54.36.83-1.45,3.06-5.14,6.7-11.06,3.63-5.92,8.26-13.19,13.86-21.81,5.61-8.62,11.89-17.96,18.85-28.04,6.96-10.07,14.12-20.09,21.5-30.06,7.37-9.97,14.74-19.31,22.12-28.04,7.37-8.72,14.17-15.83,20.4-21.34,6.23-5.5,11.78-9.03,16.67-10.59,4.88-1.56,8.46-.16,10.75,4.21-18.07,23.26-34.06,43.51-47.97,60.75-13.92,17.24-25.91,32.76-35.98,46.57-10.08,13.81-18.49,26.53-25.23,38.16-6.75,11.63-12.1,23.47-16.04,35.51l130.53,62.93c-.42,3.53-1.61,6.85-3.58,9.97-1.98,3.12-5.25,4.47-9.81,4.05l-121.18-56.39c.62,3.32.88,7.32.78,11.99-.11,4.67-.31,9.5-.62,14.49s-.78,9.76-1.4,14.33c-.62,4.57-1.04,8.31-1.25,11.21.41,4.36-1.09,7.27-4.52,8.72-3.43,1.45-6.8.72-10.12-2.18l-4.36-251.71Z"/>
</svg>