<?xml version="1.0" encoding="UTF-8"?>
<svg id="b" data-name="Layer 2" xmlns="http://www.w3.org/2000/svg" viewBox="0 0 493.6 442.86">
  <defs>
    <style>
      .d, .e {
        stroke-width: 4.49px;
      }

      .d, .e, .f {
        stroke-miterlimit: 10;
      }

      .d, .e, .g {
        stroke: #6e8b3d;
      }

      .d, .h {
        fill: #fff;
      }

      .e {
        fill: #a4b87b;
        opacity: .67;
      }

      .h {
        stroke: #52682d;
        stroke-width: 16.24px;
      }

      .h, .g {
        stroke-linejoin: round;
      }

      .f {
        stroke: #fefffd;
        stroke-width: 4px;
      }

      .f, .g {
        fill: none;
      }

      .g {
        stroke-width: 11.37px;
      }
    </style>
  </defs>
  <g id="c" data-name="Layer 1">
    <path class="h" d="M341.49,8.12h-189.37c-17.62,0-33.9,9.4-42.7,24.65L14.73,196.78c-8.81,15.26-8.81,34.05,0,49.31l94.69,164c8.81,15.26,25.09,24.65,42.7,24.65h189.37c17.62,0,33.9-9.4,42.7-24.65l94.69-164c8.81-15.26,8.81-34.05,0-49.31l-94.69-164c-8.81-15.26-25.09-24.65-42.7-24.65Z"/>
    <path class="g" d="M326.34,37.97h-159.07c-14.8,0-28.47,7.89-35.87,20.71L51.86,196.44c-7.4,12.82-7.4,28.6,0,41.42l79.54,137.76c7.4,12.82,21.07,20.71,35.87,20.71h159.07c14.8,0,28.47-7.89,35.87-20.71l79.54-137.76c7.4-12.82,7.4-28.6,0-41.42l-79.54-137.76c-7.4-12.82-21.07-20.71-35.87-20.71Z"/>
    <rect class="d" x="205.02" y="255.67" width="75.66" height="65.96" transform="translate(485.7 577.3) rotate(-180)"/>
    <rect class="d" x="293.9" y="255.67" width="75.66" height="65.96" transform="translate(663.46 577.3) rotate(-180)"/>
    <rect class="d" x="116.14" y="254.7" width="75.66" height="65.96" transform="translate(307.93 575.35) rotate(-180)"/>
    <rect class="d" x="292.58" y="177.71" width="75.66" height="65.96" transform="translate(660.81 421.38) rotate(-180)"/>
    <rect class="d" x="203.69" y="176.73" width="75.66" height="65.96" transform="translate(483.05 419.43) rotate(-180)"/>
    <rect class="e" x="292.45" y="93.97" width="75.66" height="65.96" transform="translate(660.56 253.91) rotate(-180)"/>
    <rect class="f" x="296" y="97.27" width="68.09" height="59.36" transform="translate(660.09 253.91) rotate(-180)"/>
  </g>
</svg>